<mxfile host="app.diagrams.net" modified="2021-12-10T11:14:01.660Z" agent="5.0 (Windows NT 10.0; Win64; x64) AppleWebKit/537.36 (KHTML, like Gecko) Chrome/96.0.4664.93 Safari/537.36" etag="mWtKRuDvFzEJlN1tDi8S" version="15.9.4" type="github">
  <diagram id="lZ0P4kBstY_n32ZySdzd" name="Page-1">
    <mxGraphModel dx="1422" dy="762" grid="1" gridSize="10" guides="1" tooltips="1" connect="1" arrows="1" fold="1" page="1" pageScale="1" pageWidth="827" pageHeight="1169" math="0" shadow="0">
      <root>
        <mxCell id="0" />
        <mxCell id="1" parent="0" />
        <mxCell id="kWY36O7lsPUfzg_1Zvis-40" value="" style="rounded=0;whiteSpace=wrap;html=1;shadow=1;fontSize=12;dashed=1;" vertex="1" parent="1">
          <mxGeometry x="70" y="840" width="180" height="160" as="geometry" />
        </mxCell>
        <mxCell id="kWY36O7lsPUfzg_1Zvis-1" value="数据" style="shape=cylinder3;whiteSpace=wrap;html=1;boundedLbl=1;backgroundOutline=1;size=15;fontStyle=1" vertex="1" parent="1">
          <mxGeometry x="270" y="70" width="250" height="100" as="geometry" />
        </mxCell>
        <mxCell id="kWY36O7lsPUfzg_1Zvis-2" value="挖掘分析（油耗影响）" style="rounded=0;whiteSpace=wrap;html=1;fontStyle=1" vertex="1" parent="1">
          <mxGeometry x="270" y="230" width="250" height="60" as="geometry" />
        </mxCell>
        <mxCell id="kWY36O7lsPUfzg_1Zvis-5" value="" style="rounded=0;whiteSpace=wrap;html=1;dashed=1;shadow=1;" vertex="1" parent="1">
          <mxGeometry x="80" y="377" width="290" height="310" as="geometry" />
        </mxCell>
        <mxCell id="kWY36O7lsPUfzg_1Zvis-13" value="行驶工况类" style="text;html=1;strokeColor=none;fillColor=none;align=center;verticalAlign=middle;whiteSpace=wrap;rounded=0;shadow=1;fontStyle=1" vertex="1" parent="1">
          <mxGeometry x="190" y="377" width="70" height="30" as="geometry" />
        </mxCell>
        <mxCell id="kWY36O7lsPUfzg_1Zvis-18" value="天气情况" style="rounded=1;whiteSpace=wrap;html=1;fontSize=12;shadow=1;" vertex="1" parent="1">
          <mxGeometry x="110" y="417" width="240" height="40" as="geometry" />
        </mxCell>
        <mxCell id="kWY36O7lsPUfzg_1Zvis-19" value="路况" style="rounded=1;whiteSpace=wrap;html=1;fontSize=12;shadow=1;" vertex="1" parent="1">
          <mxGeometry x="110" y="467" width="240" height="40" as="geometry" />
        </mxCell>
        <mxCell id="kWY36O7lsPUfzg_1Zvis-20" value="运营地区" style="rounded=1;whiteSpace=wrap;html=1;fontSize=12;shadow=1;" vertex="1" parent="1">
          <mxGeometry x="110" y="517" width="240" height="40" as="geometry" />
        </mxCell>
        <mxCell id="kWY36O7lsPUfzg_1Zvis-21" value="载重" style="rounded=1;whiteSpace=wrap;html=1;fontSize=12;shadow=1;" vertex="1" parent="1">
          <mxGeometry x="110" y="567" width="240" height="40" as="geometry" />
        </mxCell>
        <mxCell id="kWY36O7lsPUfzg_1Zvis-22" value="..." style="rounded=1;whiteSpace=wrap;html=1;fontSize=12;shadow=1;" vertex="1" parent="1">
          <mxGeometry x="110" y="617" width="240" height="40" as="geometry" />
        </mxCell>
        <mxCell id="kWY36O7lsPUfzg_1Zvis-25" value="" style="rounded=0;whiteSpace=wrap;html=1;dashed=1;shadow=1;" vertex="1" parent="1">
          <mxGeometry x="430" y="377" width="290" height="310" as="geometry" />
        </mxCell>
        <mxCell id="kWY36O7lsPUfzg_1Zvis-26" value="影响因子类" style="text;html=1;strokeColor=none;fillColor=none;align=center;verticalAlign=middle;whiteSpace=wrap;rounded=0;shadow=1;fontStyle=1" vertex="1" parent="1">
          <mxGeometry x="540" y="370" width="70" height="30" as="geometry" />
        </mxCell>
        <mxCell id="kWY36O7lsPUfzg_1Zvis-27" value="发动机转速" style="rounded=1;whiteSpace=wrap;html=1;fontSize=12;shadow=1;" vertex="1" parent="1">
          <mxGeometry x="460" y="410" width="240" height="40" as="geometry" />
        </mxCell>
        <mxCell id="kWY36O7lsPUfzg_1Zvis-28" value="车速" style="rounded=1;whiteSpace=wrap;html=1;fontSize=12;shadow=1;" vertex="1" parent="1">
          <mxGeometry x="460" y="460" width="240" height="40" as="geometry" />
        </mxCell>
        <mxCell id="kWY36O7lsPUfzg_1Zvis-29" value="油门开度" style="rounded=1;whiteSpace=wrap;html=1;fontSize=12;shadow=1;" vertex="1" parent="1">
          <mxGeometry x="460" y="510" width="240" height="40" as="geometry" />
        </mxCell>
        <mxCell id="kWY36O7lsPUfzg_1Zvis-30" value="档位" style="rounded=1;whiteSpace=wrap;html=1;fontSize=12;shadow=1;" vertex="1" parent="1">
          <mxGeometry x="460" y="560" width="240" height="40" as="geometry" />
        </mxCell>
        <mxCell id="kWY36O7lsPUfzg_1Zvis-31" value="..." style="rounded=1;whiteSpace=wrap;html=1;fontSize=12;shadow=1;" vertex="1" parent="1">
          <mxGeometry x="460" y="610" width="240" height="40" as="geometry" />
        </mxCell>
        <mxCell id="kWY36O7lsPUfzg_1Zvis-32" value="" style="shape=flexArrow;endArrow=classic;html=1;rounded=0;fontSize=12;width=20;" edge="1" parent="1">
          <mxGeometry width="50" height="50" relative="1" as="geometry">
            <mxPoint x="400" y="180" as="sourcePoint" />
            <mxPoint x="400" y="220" as="targetPoint" />
          </mxGeometry>
        </mxCell>
        <mxCell id="kWY36O7lsPUfzg_1Zvis-33" value="" style="shape=flexArrow;endArrow=classic;html=1;rounded=0;fontSize=12;width=20;" edge="1" parent="1">
          <mxGeometry width="50" height="50" relative="1" as="geometry">
            <mxPoint x="493" y="315" as="sourcePoint" />
            <mxPoint x="553" y="355" as="targetPoint" />
          </mxGeometry>
        </mxCell>
        <mxCell id="kWY36O7lsPUfzg_1Zvis-34" value="" style="shape=flexArrow;endArrow=classic;html=1;rounded=0;fontSize=12;width=20;" edge="1" parent="1">
          <mxGeometry width="50" height="50" relative="1" as="geometry">
            <mxPoint x="310" y="310" as="sourcePoint" />
            <mxPoint x="250" y="350" as="targetPoint" />
          </mxGeometry>
        </mxCell>
        <mxCell id="kWY36O7lsPUfzg_1Zvis-35" value="模型算法" style="rounded=0;whiteSpace=wrap;html=1;shadow=1;fontSize=12;fontStyle=1" vertex="1" parent="1">
          <mxGeometry x="332" y="850" width="205" height="140" as="geometry" />
        </mxCell>
        <mxCell id="kWY36O7lsPUfzg_1Zvis-36" value="行驶工况数据" style="rounded=0;whiteSpace=wrap;html=1;shadow=1;fontSize=12;fontStyle=1" vertex="1" parent="1">
          <mxGeometry x="80" y="860" width="160" height="60" as="geometry" />
        </mxCell>
        <mxCell id="kWY36O7lsPUfzg_1Zvis-37" value="影响因子数据" style="rounded=0;whiteSpace=wrap;html=1;shadow=1;fontSize=12;fontStyle=1" vertex="1" parent="1">
          <mxGeometry x="80" y="930" width="160" height="60" as="geometry" />
        </mxCell>
        <mxCell id="kWY36O7lsPUfzg_1Zvis-39" value="" style="shape=flexArrow;endArrow=classic;html=1;rounded=0;fontSize=12;width=30;" edge="1" parent="1">
          <mxGeometry width="50" height="50" relative="1" as="geometry">
            <mxPoint x="280" y="919" as="sourcePoint" />
            <mxPoint x="320" y="919" as="targetPoint" />
          </mxGeometry>
        </mxCell>
        <mxCell id="kWY36O7lsPUfzg_1Zvis-41" value="影响因子经济区间" style="rounded=0;whiteSpace=wrap;html=1;shadow=1;fontSize=12;" vertex="1" parent="1">
          <mxGeometry x="600" y="850" width="205" height="140" as="geometry" />
        </mxCell>
        <mxCell id="kWY36O7lsPUfzg_1Zvis-43" value="" style="shape=flexArrow;endArrow=classic;html=1;rounded=0;fontSize=12;width=30;" edge="1" parent="1">
          <mxGeometry width="50" height="50" relative="1" as="geometry">
            <mxPoint x="552" y="919" as="sourcePoint" />
            <mxPoint x="592" y="919" as="targetPoint" />
          </mxGeometry>
        </mxCell>
      </root>
    </mxGraphModel>
  </diagram>
</mxfile>
